<mxfile host="app.diagrams.net" modified="2024-05-02T14:12:15.330Z" agent="Mozilla/5.0 (Windows NT 10.0; Win64; x64) AppleWebKit/537.36 (KHTML, like Gecko) Chrome/124.0.0.0 Safari/537.36" etag="DDXq5Eop0g5DcMSxLnHR" version="24.3.1" type="github" pages="2">
  <diagram name="Page-1" id="40iLdwrlOrPCSQy4F-8K">
    <mxGraphModel dx="1050" dy="618" grid="1" gridSize="10" guides="1" tooltips="1" connect="1" arrows="1" fold="1" page="1" pageScale="1" pageWidth="850" pageHeight="1100" math="0" shadow="0">
      <root>
        <mxCell id="0" />
        <mxCell id="1" parent="0" />
        <mxCell id="WeqEOGse8L6qWEjJ_MrT-3" value="start" style="ellipse;whiteSpace=wrap;html=1;" vertex="1" parent="1">
          <mxGeometry x="350" y="110" width="120" height="80" as="geometry" />
        </mxCell>
        <mxCell id="WeqEOGse8L6qWEjJ_MrT-4" value="input n" style="shape=parallelogram;perimeter=parallelogramPerimeter;whiteSpace=wrap;html=1;fixedSize=1;" vertex="1" parent="1">
          <mxGeometry x="350" y="240" width="120" height="60" as="geometry" />
        </mxCell>
        <mxCell id="WeqEOGse8L6qWEjJ_MrT-6" value="" style="rounded=0;whiteSpace=wrap;html=1;" vertex="1" parent="1">
          <mxGeometry x="350" y="360" width="120" height="60" as="geometry" />
        </mxCell>
        <mxCell id="WeqEOGse8L6qWEjJ_MrT-7" value="" style="shape=parallelogram;perimeter=parallelogramPerimeter;whiteSpace=wrap;html=1;fixedSize=1;" vertex="1" parent="1">
          <mxGeometry x="360" y="480" width="120" height="60" as="geometry" />
        </mxCell>
        <mxCell id="WeqEOGse8L6qWEjJ_MrT-8" value="" style="ellipse;whiteSpace=wrap;html=1;" vertex="1" parent="1">
          <mxGeometry x="350" y="600" width="120" height="80" as="geometry" />
        </mxCell>
        <mxCell id="WeqEOGse8L6qWEjJ_MrT-9" value="" style="endArrow=classic;html=1;rounded=0;exitX=0.5;exitY=1;exitDx=0;exitDy=0;" edge="1" parent="1" source="WeqEOGse8L6qWEjJ_MrT-3" target="WeqEOGse8L6qWEjJ_MrT-4">
          <mxGeometry width="50" height="50" relative="1" as="geometry">
            <mxPoint x="390" y="420" as="sourcePoint" />
            <mxPoint x="440" y="370" as="targetPoint" />
          </mxGeometry>
        </mxCell>
        <mxCell id="WeqEOGse8L6qWEjJ_MrT-10" value="" style="endArrow=classic;html=1;rounded=0;exitX=0.5;exitY=1;exitDx=0;exitDy=0;" edge="1" parent="1" source="WeqEOGse8L6qWEjJ_MrT-4">
          <mxGeometry width="50" height="50" relative="1" as="geometry">
            <mxPoint x="520" y="210" as="sourcePoint" />
            <mxPoint x="410" y="350" as="targetPoint" />
            <Array as="points" />
          </mxGeometry>
        </mxCell>
        <mxCell id="WeqEOGse8L6qWEjJ_MrT-11" value="" style="endArrow=classic;html=1;rounded=0;exitX=0.5;exitY=1;exitDx=0;exitDy=0;" edge="1" parent="1">
          <mxGeometry width="50" height="50" relative="1" as="geometry">
            <mxPoint x="409.5" y="420" as="sourcePoint" />
            <mxPoint x="409.5" y="470" as="targetPoint" />
          </mxGeometry>
        </mxCell>
        <mxCell id="WeqEOGse8L6qWEjJ_MrT-13" value="" style="endArrow=classic;html=1;rounded=0;entryX=0.5;entryY=0;entryDx=0;entryDy=0;" edge="1" parent="1" target="WeqEOGse8L6qWEjJ_MrT-8">
          <mxGeometry width="50" height="50" relative="1" as="geometry">
            <mxPoint x="410" y="540" as="sourcePoint" />
            <mxPoint x="420" y="590" as="targetPoint" />
          </mxGeometry>
        </mxCell>
        <mxCell id="WeqEOGse8L6qWEjJ_MrT-14" value="nhập số nguyên n, in ra kết quả bình phương n&lt;div&gt;&lt;br&gt;&lt;div&gt;&lt;br&gt;&lt;/div&gt;&lt;/div&gt;" style="text;html=1;align=center;verticalAlign=middle;resizable=0;points=[];autosize=1;strokeColor=none;fillColor=none;" vertex="1" parent="1">
          <mxGeometry x="275" y="33" width="270" height="60" as="geometry" />
        </mxCell>
      </root>
    </mxGraphModel>
  </diagram>
  <diagram id="EuOmldwlvkZBXvkae8rD" name="Page-2">
    <mxGraphModel dx="1050" dy="6118" grid="1" gridSize="10" guides="1" tooltips="1" connect="1" arrows="1" fold="1" page="1" pageScale="1" pageWidth="850" pageHeight="1100" math="0" shadow="0">
      <root>
        <mxCell id="0" />
        <mxCell id="1" parent="0" />
        <mxCell id="oJfApHeUAzDYpBCWqSJr-4" style="edgeStyle=orthogonalEdgeStyle;rounded=0;orthogonalLoop=1;jettySize=auto;html=1;" edge="1" parent="1">
          <mxGeometry relative="1" as="geometry">
            <mxPoint x="630" y="-2795" as="sourcePoint" />
            <mxPoint x="630" y="-2775" as="targetPoint" />
          </mxGeometry>
        </mxCell>
        <mxCell id="oJfApHeUAzDYpBCWqSJr-6" value="&lt;div&gt;&lt;span style=&quot;color: rgb(209, 210, 211); font-family: Slack-Lato, Slack-Fractions, appleLogo, sans-serif; font-size: 15px; font-variant-ligatures: common-ligatures; text-align: left; text-wrap: wrap; background-color: rgb(26, 29, 33);&quot;&gt;&lt;br&gt;&lt;/span&gt;&lt;/div&gt;" style="text;html=1;align=center;verticalAlign=middle;resizable=0;points=[];autosize=1;strokeColor=none;fillColor=none;" vertex="1" parent="1">
          <mxGeometry x="350" y="-3252" width="20" height="30" as="geometry" />
        </mxCell>
        <mxCell id="oJfApHeUAzDYpBCWqSJr-7" value="START" style="ellipse;whiteSpace=wrap;html=1;" vertex="1" parent="1">
          <mxGeometry x="365" y="-4770" width="120" height="80" as="geometry" />
        </mxCell>
        <mxCell id="oJfApHeUAzDYpBCWqSJr-8" value="Input&lt;div&gt;&amp;nbsp;a: chiều dài&lt;div&gt;b: chiều rộng.&lt;/div&gt;&lt;div&gt;&lt;br&gt;&lt;/div&gt;&lt;/div&gt;" style="shape=parallelogram;perimeter=parallelogramPerimeter;whiteSpace=wrap;html=1;fixedSize=1;" vertex="1" parent="1">
          <mxGeometry x="350" y="-4640" width="135" height="60" as="geometry" />
        </mxCell>
        <mxCell id="oJfApHeUAzDYpBCWqSJr-9" value="result&amp;nbsp;&lt;div&gt;chu vi p = 2 *(a+b).&lt;/div&gt;&lt;div&gt;diện tích s=a*b.&lt;/div&gt;" style="rounded=0;whiteSpace=wrap;html=1;" vertex="1" parent="1">
          <mxGeometry x="360" y="-4530" width="120" height="60" as="geometry" />
        </mxCell>
        <mxCell id="oJfApHeUAzDYpBCWqSJr-10" value="&amp;nbsp;Output&amp;nbsp;&lt;div&gt;p&lt;/div&gt;&lt;div&gt;s&lt;/div&gt;" style="shape=parallelogram;perimeter=parallelogramPerimeter;whiteSpace=wrap;html=1;fixedSize=1;" vertex="1" parent="1">
          <mxGeometry x="360" y="-4430" width="120" height="60" as="geometry" />
        </mxCell>
        <mxCell id="oJfApHeUAzDYpBCWqSJr-11" value="END" style="ellipse;whiteSpace=wrap;html=1;" vertex="1" parent="1">
          <mxGeometry x="357.5" y="-4330" width="120" height="80" as="geometry" />
        </mxCell>
        <mxCell id="oJfApHeUAzDYpBCWqSJr-12" value="" style="endArrow=classic;html=1;rounded=0;exitX=0.442;exitY=1.04;exitDx=0;exitDy=0;exitPerimeter=0;entryX=0.5;entryY=0;entryDx=0;entryDy=0;" edge="1" parent="1" source="oJfApHeUAzDYpBCWqSJr-7" target="oJfApHeUAzDYpBCWqSJr-8">
          <mxGeometry width="50" height="50" relative="1" as="geometry">
            <mxPoint x="400" y="-4570" as="sourcePoint" />
            <mxPoint x="450" y="-4620" as="targetPoint" />
          </mxGeometry>
        </mxCell>
        <mxCell id="oJfApHeUAzDYpBCWqSJr-15" value="" style="endArrow=classic;html=1;rounded=0;exitX=0.442;exitY=1.04;exitDx=0;exitDy=0;exitPerimeter=0;entryX=0.5;entryY=0;entryDx=0;entryDy=0;" edge="1" parent="1">
          <mxGeometry width="50" height="50" relative="1" as="geometry">
            <mxPoint x="417" y="-4577" as="sourcePoint" />
            <mxPoint x="417" y="-4530" as="targetPoint" />
          </mxGeometry>
        </mxCell>
        <mxCell id="oJfApHeUAzDYpBCWqSJr-16" value="" style="endArrow=classic;html=1;rounded=0;exitX=0.442;exitY=1.04;exitDx=0;exitDy=0;exitPerimeter=0;entryX=0.5;entryY=0;entryDx=0;entryDy=0;" edge="1" parent="1">
          <mxGeometry width="50" height="50" relative="1" as="geometry">
            <mxPoint x="417" y="-4470" as="sourcePoint" />
            <mxPoint x="417" y="-4423" as="targetPoint" />
          </mxGeometry>
        </mxCell>
        <mxCell id="oJfApHeUAzDYpBCWqSJr-17" value="" style="endArrow=classic;html=1;rounded=0;exitX=0.442;exitY=1.04;exitDx=0;exitDy=0;exitPerimeter=0;entryX=0.5;entryY=0;entryDx=0;entryDy=0;" edge="1" parent="1">
          <mxGeometry width="50" height="50" relative="1" as="geometry">
            <mxPoint x="417" y="-4370" as="sourcePoint" />
            <mxPoint x="417" y="-4323" as="targetPoint" />
          </mxGeometry>
        </mxCell>
        <mxCell id="oJfApHeUAzDYpBCWqSJr-22" value="&lt;h2&gt;&lt;span style=&quot;color: rgb(209, 210, 211); font-family: Slack-Lato, Slack-Fractions, appleLogo, sans-serif; font-size: 15px; font-variant-ligatures: common-ligatures; text-wrap: wrap; background-color: rgb(26, 29, 33);&quot;&gt;Nhập&amp;nbsp;&lt;/span&gt;vào chiều dài, chiều rộng của Hình chữ nhật. In ra chu vi, diện tích&lt;/h2&gt;" style="text;html=1;align=left;verticalAlign=middle;resizable=0;points=[];autosize=1;strokeColor=none;fillColor=none;" vertex="1" parent="1">
          <mxGeometry x="65" y="-4877" width="630" height="60" as="geometry" />
        </mxCell>
      </root>
    </mxGraphModel>
  </diagram>
</mxfile>
